<svg width="180" height="180" viewBox="0 0 180 180" xmlns="http://www.w3.org/2000/svg">
  <rect width="180" height="180" rx="40" fill="#10B981"/>

  <g fill="white">
    <!-- Vertical bar -->
    <rect x="84" y="40" width="12" height="100" rx="6"/>

    <!-- Top C shape -->
    <path d="M 90,55 C 110,55 120,65 120,80 C 120,95 110,105 90,105 L 70,105 C 60,105 50,95 50,80 L 60,80 C 60,90 65,95 70,95 L 90,95 C 105,95 110,85 110,80 C 110,70 105,65 90,65 L 70,65 L 70,55 L 90,55 Z"/>

    <!-- Bottom C shape flipped -->
    <path d="M 90,125 C 70,125 60,115 60,100 C 60,85 70,75 90,75 L 110,75 C 120,75 130,85 130,100 L 120,100 C 120,90 115,85 110,85 L 90,85 C 75,85 70,95 70,100 C 70,110 75,115 90,115 L 110,115 L 110,125 L 90,125 Z"/>
  </g>
</svg>
