<svg width="512" height="512" viewBox="0 0 512 512" xmlns="http://www.w3.org/2000/svg">
  <rect width="512" height="512" rx="115" fill="#10B981"/>

  <g fill="white">
    <!-- Vertical bar -->
    <rect x="238" y="114" width="36" height="284" rx="18"/>

    <!-- Top C shape -->
    <path d="M 256,156 C 313,156 341,184 341,227 C 341,270 313,298 256,298 L 199,298 C 170,298 142,270 142,227 L 170,227 C 170,256 185,270 199,270 L 256,270 C 299,270 313,242 313,227 C 313,199 299,184 256,184 L 199,184 L 199,156 L 256,156 Z"/>

    <!-- Bottom C shape flipped -->
    <path d="M 256,356 C 199,356 171,328 171,285 C 171,242 199,214 256,214 L 313,214 C 342,214 370,242 370,285 L 342,285 C 342,256 327,242 313,242 L 256,242 C 213,242 199,270 199,285 C 199,313 213,328 256,328 L 313,328 L 313,356 L 256,356 Z"/>
  </g>
</svg>
