<svg width="180" height="180" viewBox="0 0 180 180" fill="none" xmlns="http://www.w3.org/2000/svg">
  <rect width="180" height="180" rx="40" fill="url(#gradient)"/>
  <path d="M98 54.375H87.5V47.5C87.5 43.3579 84.1421 40 80 40C75.8579 40 72.5 43.3579 72.5 47.5V54.375H70C61.1634 54.375 54 61.5384 54 70.375V73.75C54 82.5866 61.1634 89.75 70 89.75H81.5C84.9518 89.75 87.75 92.5482 87.75 96V99.375C87.75 102.827 84.9518 105.625 81.5 105.625H63.25C59.7982 105.625 57 102.827 57 99.375C57 95.2329 53.6421 91.875 49.5 91.875C45.3579 91.875 42 95.2329 42 99.375C42 108.212 49.1634 115.375 58 115.375H72.5V122.5C72.5 126.642 75.8579 130 80 130C84.1421 130 87.5 126.642 87.5 122.5V115.375H89.5C98.3366 115.375 105.5 108.212 105.5 99.375V96C105.5 87.1634 98.3366 80 89.5 80H78C74.5482 80 71.75 77.2018 71.75 73.75V70.375C71.75 66.9232 74.5482 64.125 78 64.125H96.25C99.7018 64.125 102.5 66.9232 102.5 70.375C102.5 74.5171 105.858 77.875 110 77.875C114.142 77.875 117.5 74.5171 117.5 70.375C117.5 61.5384 110.337 54.375 101.5 54.375H98Z" fill="white"/>
  <defs>
    <linearGradient id="gradient" x1="0" y1="0" x2="180" y2="180" gradientUnits="userSpaceOnUse">
      <stop stopColor="#10B981"/>
      <stop offset="0.5" stopColor="#059669"/>
      <stop offset="1" stopColor="#047857"/>
    </linearGradient>
  </defs>
</svg>
