<svg width="512" height="512" viewBox="0 0 512 512" fill="none" xmlns="http://www.w3.org/2000/svg">
  <rect width="512" height="512" rx="128" fill="url(#gradient)"/>
  <path d="M280 155H250V135C250 122.85 240.15 113 228 113C215.85 113 206 122.85 206 135V155H200C174.595 155 154 175.595 154 201V211C154 236.405 174.595 257 200 257H232C241.389 257 249 264.611 249 274V284C249 293.389 241.389 301 232 301H180C170.611 301 163 293.389 163 284C163 271.85 153.15 262 141 262C128.85 262 119 271.85 119 284C119 309.405 139.595 330 165 330H206V350C206 362.15 215.85 372 228 372C240.15 372 250 362.15 250 350V330H252C277.405 330 298 309.405 298 284V274C298 248.595 277.405 228 252 228H220C210.611 228 203 220.389 203 211V201C203 191.611 210.611 184 220 184H272C281.389 184 289 191.611 289 201C289 213.15 298.85 223 311 223C323.15 223 333 213.15 333 201C333 175.595 312.405 155 287 155H280Z" fill="white"/>
  <defs>
    <linearGradient id="gradient" x1="0" y1="0" x2="512" y2="512" gradientUnits="userSpaceOnUse">
      <stop stopColor="#10B981"/>
      <stop offset="0.5" stopColor="#059669"/>
      <stop offset="1" stopColor="#047857"/>
    </linearGradient>
  </defs>
</svg>
