<svg width="32" height="32" viewBox="0 0 32 32" fill="none" xmlns="http://www.w3.org/2000/svg">
  <rect width="32" height="32" rx="8" fill="url(#gradient)" transform="rotate(12 16 16)"/>
  <path d="M18.5 10.5H16.75V9.5C16.75 9.08579 16.4142 8.75 16 8.75C15.5858 8.75 15.25 9.08579 15.25 9.5V10.5H14.75C13.5074 10.5 12.5 11.5074 12.5 12.75V13.25C12.5 14.4926 13.5074 15.5 14.75 15.5H17.25C17.6642 15.5 18 15.8358 18 16.25V16.75C18 17.1642 17.6642 17.5 17.25 17.5H13.5C13.0858 17.5 12.75 17.1642 12.75 16.75C12.75 16.3358 12.4142 16 12 16C11.5858 16 11.25 16.3358 11.25 16.75C11.25 17.9926 12.2574 19 13.5 19H15.25V20C15.25 20.4142 15.5858 20.75 16 20.75C16.4142 20.75 16.75 20.4142 16.75 20V19H17.25C18.4926 19 19.5 17.9926 19.5 16.75V16.25C19.5 15.0074 18.4926 14 17.25 14H14.75C14.3358 14 14 13.6642 14 13.25V12.75C14 12.3358 14.3358 12 14.75 12H18.5C18.9142 12 19.25 11.6642 19.25 11.25C19.25 10.8358 18.9142 10.5 18.5 10.5Z" fill="white"/>
  <defs>
    <linearGradient id="gradient" x1="0" y1="0" x2="32" y2="32" gradientUnits="userSpaceOnUse">
      <stop stopColor="#3B82F6"/>
      <stop offset="1" stopColor="#60A5FA"/>
    </linearGradient>
  </defs>
</svg>